<svg id="Layer_1" data-name="Layer 1" xmlns="http://www.w3.org/2000/svg" viewBox="0 0 30 22"><defs><style>.cls-1{fill:#414042;}</style></defs><path class="cls-1" d="M13,15.67v1a39.2,39.2,0,0,1,14,0v-1a4.65,4.65,0,0,1,4-4.62V10.5A4.5,4.5,0,0,0,26.49,6h-13A4.51,4.51,0,0,0,9,10.5v.55A4.64,4.64,0,0,1,13,15.67Z" transform="translate(-4.99 -6)"/><path class="cls-1" d="M33.9,13a3.47,3.47,0,0,0-2.43-1h-.16A3.64,3.64,0,0,0,28,15.67v2.2a38.07,38.07,0,0,0-16,0v-2.2A3.63,3.63,0,0,0,8.68,12H8.51A3.49,3.49,0,0,0,7,18.65V23.5A2.51,2.51,0,0,0,9.49,26H10v1.5a.5.5,0,0,0,.5.5h2a.5.5,0,0,0,.5-.5V26H27v1.5a.5.5,0,0,0,.5.5h2a.5.5,0,0,0,.5-.5V26h.5A2.5,2.5,0,0,0,33,23.5V18.65A3.49,3.49,0,0,0,33.9,13ZM12,27H11V26h1Zm17,0H28V26h1Z" transform="translate(-4.99 -6)"/></svg>