<?xml version="1.0" encoding="utf-8"?>
<!-- Generator: Adobe Illustrator 26.0.2, SVG Export Plug-In . SVG Version: 6.00 Build 0)  -->
<svg version="1.1" id="Layer_1" xmlns="http://www.w3.org/2000/svg" xmlns:xlink="http://www.w3.org/1999/xlink" x="0px" y="0px"
	 viewBox="0 0 30 22" style="enable-background:new 0 0 30 22;" xml:space="preserve">
<style type="text/css">
	.st0{fill:#F0F0F0;}
</style>
<path class="st0" d="M8,9.7v1c4.6-0.8,9.4-0.8,14,0v-1c0-2.3,1.7-4.3,4-4.6V4.5C26,2,24,0,21.5,0c0,0,0,0,0,0h-13C6,0,4,2,4,4.5v0.6
	C6.3,5.4,8,7.3,8,9.7z"/>
<path class="st0" d="M28.9,7c-0.6-0.6-1.5-1-2.4-1h-0.2C24.4,6.2,23,7.8,23,9.7v2.2c-5.3-1.1-10.7-1.1-16,0V9.7C7,7.8,5.6,6.2,3.7,6
	H3.5C1.6,6,0,7.5,0,9.5c0,1.4,0.8,2.6,2,3.2v4.9C2,18.9,3.1,20,4.5,20H5v1.5C5,21.8,5.2,22,5.5,22h2C7.8,22,8,21.8,8,21.5V20h14v1.5
	c0,0.3,0.2,0.5,0.5,0.5h2c0.3,0,0.5-0.2,0.5-0.5V20h0.5c1.4,0,2.5-1.1,2.5-2.5v-4.9c1.7-0.8,2.5-2.9,1.6-4.7
	C29.4,7.6,29.2,7.3,28.9,7z M7,21H6v-1h1V21z M24,21h-1v-1h1V21z"/>
</svg>
